<?xml version="1.0" standalone="no"?>
<!DOCTYPE svg PUBLIC "-//W3C//DTD SVG 20010904//EN"
 "http://www.w3.org/TR/2001/REC-SVG-20010904/DTD/svg10.dtd">
<svg version="1.0" xmlns="http://www.w3.org/2000/svg"
 width="512.000000pt" height="512.000000pt" viewBox="0 0 512.000000 512.000000"
 preserveAspectRatio="xMidYMid meet">
<metadata>
Created by potrace 1.14, written by Peter Selinger 2001-2017
</metadata>
<g transform="translate(0.000000,512.000000) scale(0.100000,-0.100000)"
fill="#000000" stroke="none">
<path d="M1179 5115 c-3 -2 -25 -7 -50 -9 -57 -6 -222 -49 -290 -76 -57 -23
-190 -90 -199 -100 -3 -4 -12 -9 -20 -12 -37 -14 -183 -134 -256 -211 -76 -80
-165 -203 -212 -292 -24 -46 -94 -214 -98 -235 0 -3 -4 -16 -7 -30 -4 -14 -9
-37 -11 -52 -3 -15 -7 -31 -10 -36 -17 -29 -21 -276 -21 -1502 0 -1193 4
-1472 21 -1501 2 -3 6 -21 9 -40 10 -58 65 -211 103 -284 99 -192 274 -395
432 -500 112 -74 286 -159 350 -171 3 0 12 -3 20 -7 19 -8 86 -24 125 -31 17
-3 41 -9 55 -13 14 -4 648 -9 1410 -10 1314 -2 1390 -1 1490 16 132 24 270 70
383 130 116 61 129 68 136 78 3 4 26 22 50 38 95 64 264 246 330 356 22 36 89
171 114 229 16 37 44 130 52 171 3 13 7 35 10 49 3 14 8 43 12 65 10 50 11
2784 1 2845 -23 147 -59 265 -123 395 -68 140 -141 241 -255 355 -186 186
-400 304 -655 361 -27 6 -61 13 -75 17 -30 7 -2815 14 -2821 7z"/>
</g>
</svg>
